<mxfile host="Electron" modified="2023-08-10T13:20:41.858Z" agent="Mozilla/5.0 (Windows NT 6.1; Win64; x64) AppleWebKit/537.36 (KHTML, like Gecko) draw.io/21.1.2 Chrome/106.0.5249.199 Electron/21.4.3 Safari/537.36" etag="i3kgXwCEhkiEB98ofnSD" version="21.1.2" type="device">
  <diagram name="ページ1" id="CAR7LNhN3lg9KbOMNgop">
    <mxGraphModel dx="1418" dy="775" grid="1" gridSize="10" guides="1" tooltips="1" connect="1" arrows="1" fold="1" page="1" pageScale="1" pageWidth="1169" pageHeight="827" math="0" shadow="0">
      <root>
        <mxCell id="0" />
        <mxCell id="1" parent="0" />
        <mxCell id="ubxh0lVAukRW7MOjNGpe-1" value="Pipeline" style="rounded=1;whiteSpace=wrap;html=1;verticalAlign=top;fontStyle=1;fontSize=16;fillColor=none;strokeWidth=1;strokeColor=#999999;" parent="1" vertex="1">
          <mxGeometry x="441.25" y="81" width="718.75" height="119.5" as="geometry" />
        </mxCell>
        <mxCell id="ubxh0lVAukRW7MOjNGpe-2" value="Parallel&lt;br&gt;Processing" style="rounded=1;whiteSpace=wrap;html=1;fontStyle=0;verticalAlign=bottom;strokeColor=#d79b00;fillColor=#ffe6cc;fontSize=16;opacity=50;" parent="1" vertex="1">
          <mxGeometry x="420" y="430.5" width="85" height="230" as="geometry" />
        </mxCell>
        <mxCell id="ubxh0lVAukRW7MOjNGpe-3" value="" style="rounded=0;whiteSpace=wrap;html=1;fillColor=none;strokeColor=none;" parent="1" vertex="1">
          <mxGeometry y="0.5" width="40" height="40" as="geometry" />
        </mxCell>
        <mxCell id="ubxh0lVAukRW7MOjNGpe-4" value="" style="rounded=0;whiteSpace=wrap;html=1;fillColor=#CC0000;" parent="1" vertex="1">
          <mxGeometry x="1241" y="440.5" width="40" height="40" as="geometry" />
        </mxCell>
        <mxCell id="ubxh0lVAukRW7MOjNGpe-5" value="" style="rounded=0;whiteSpace=wrap;html=1;fillColor=none;strokeColor=none;" parent="1" vertex="1">
          <mxGeometry x="1600" width="40" height="40" as="geometry" />
        </mxCell>
        <mxCell id="ubxh0lVAukRW7MOjNGpe-6" value="" style="rounded=0;whiteSpace=wrap;html=1;fillColor=#00CC00;" parent="1" vertex="1">
          <mxGeometry x="1241" y="480.5" width="40" height="40" as="geometry" />
        </mxCell>
        <mxCell id="ubxh0lVAukRW7MOjNGpe-7" value="" style="rounded=0;whiteSpace=wrap;html=1;fillColor=#0000CC;" parent="1" vertex="1">
          <mxGeometry x="1241" y="520.5" width="40" height="40" as="geometry" />
        </mxCell>
        <mxCell id="ubxh0lVAukRW7MOjNGpe-8" value="" style="rounded=0;whiteSpace=wrap;html=1;fillColor=#CCCC00;" parent="1" vertex="1">
          <mxGeometry x="1241" y="560.5" width="40" height="40" as="geometry" />
        </mxCell>
        <mxCell id="ubxh0lVAukRW7MOjNGpe-9" value="&lt;font color=&quot;#cc0000&quot;&gt;&lt;b&gt;Fragment Shader&lt;/b&gt;&lt;/font&gt;" style="text;html=1;align=center;verticalAlign=middle;resizable=0;points=[];autosize=1;strokeColor=none;fillColor=none;fontSize=16;container=0;" parent="1" vertex="1">
          <mxGeometry x="1025" y="290.5" width="160" height="30" as="geometry" />
        </mxCell>
        <mxCell id="ubxh0lVAukRW7MOjNGpe-10" value="&lt;font color=&quot;#cc0000&quot;&gt;&lt;b&gt;Vertex Shader&lt;/b&gt;&lt;/font&gt;" style="text;html=1;align=center;verticalAlign=middle;resizable=0;points=[];autosize=1;strokeColor=none;fillColor=none;fontSize=16;container=0;" parent="1" vertex="1">
          <mxGeometry x="400" y="290.5" width="130" height="30" as="geometry" />
        </mxCell>
        <mxCell id="ubxh0lVAukRW7MOjNGpe-11" style="edgeStyle=orthogonalEdgeStyle;shape=connector;curved=1;rounded=0;orthogonalLoop=1;jettySize=auto;html=1;dashed=1;labelBackgroundColor=default;strokeColor=default;fontFamily=Helvetica;fontSize=11;fontColor=default;endArrow=classic;" parent="1" source="ubxh0lVAukRW7MOjNGpe-14" target="ubxh0lVAukRW7MOjNGpe-29" edge="1">
          <mxGeometry relative="1" as="geometry">
            <Array as="points">
              <mxPoint x="500" y="355.5" />
              <mxPoint x="500" y="450.5" />
            </Array>
          </mxGeometry>
        </mxCell>
        <mxCell id="ubxh0lVAukRW7MOjNGpe-12" style="edgeStyle=orthogonalEdgeStyle;shape=connector;curved=1;rounded=0;orthogonalLoop=1;jettySize=auto;html=1;dashed=1;labelBackgroundColor=default;strokeColor=default;fontFamily=Helvetica;fontSize=11;fontColor=default;endArrow=classic;" parent="1" source="ubxh0lVAukRW7MOjNGpe-14" target="ubxh0lVAukRW7MOjNGpe-33" edge="1">
          <mxGeometry relative="1" as="geometry">
            <Array as="points">
              <mxPoint x="510" y="355.5" />
              <mxPoint x="510" y="490.5" />
            </Array>
          </mxGeometry>
        </mxCell>
        <mxCell id="ubxh0lVAukRW7MOjNGpe-13" style="edgeStyle=orthogonalEdgeStyle;shape=connector;curved=1;rounded=0;orthogonalLoop=1;jettySize=auto;html=1;dashed=1;labelBackgroundColor=default;strokeColor=default;fontFamily=Helvetica;fontSize=11;fontColor=default;endArrow=classic;" parent="1" source="ubxh0lVAukRW7MOjNGpe-14" target="ubxh0lVAukRW7MOjNGpe-31" edge="1">
          <mxGeometry relative="1" as="geometry">
            <mxPoint x="520" y="580.5" as="targetPoint" />
            <Array as="points">
              <mxPoint x="521" y="355.5" />
              <mxPoint x="521" y="530.5" />
            </Array>
          </mxGeometry>
        </mxCell>
        <mxCell id="ubxh0lVAukRW7MOjNGpe-14" value="" style="verticalLabelPosition=bottom;html=1;verticalAlign=top;align=center;strokeColor=none;fillColor=#000000;shape=mxgraph.azure.code_file;pointerEvents=1;container=0;" parent="1" vertex="1">
          <mxGeometry x="441.25" y="330.5" width="47.5" height="50" as="geometry" />
        </mxCell>
        <mxCell id="ubxh0lVAukRW7MOjNGpe-15" value="paint" style="text;html=1;align=center;verticalAlign=middle;resizable=0;points=[];autosize=1;strokeColor=none;fillColor=none;fontSize=16;container=0;" parent="1" vertex="1">
          <mxGeometry x="1150" y="580.5" width="60" height="30" as="geometry" />
        </mxCell>
        <mxCell id="ubxh0lVAukRW7MOjNGpe-16" value="" style="group" parent="1" vertex="1" connectable="0">
          <mxGeometry x="560" y="440.5" width="120" height="125" as="geometry" />
        </mxCell>
        <mxCell id="ubxh0lVAukRW7MOjNGpe-17" value="" style="rounded=0;whiteSpace=wrap;html=1;strokeColor=#808080;fillColor=none;" parent="ubxh0lVAukRW7MOjNGpe-16" vertex="1">
          <mxGeometry width="120" height="120" as="geometry" />
        </mxCell>
        <mxCell id="ubxh0lVAukRW7MOjNGpe-18" style="edgeStyle=none;shape=connector;rounded=0;orthogonalLoop=1;jettySize=auto;html=1;entryX=0.5;entryY=0;entryDx=0;entryDy=0;labelBackgroundColor=default;strokeColor=#00CC00;fontFamily=Helvetica;fontSize=11;fontColor=default;endArrow=none;endFill=0;fillColor=#60a917;" parent="ubxh0lVAukRW7MOjNGpe-16" source="ubxh0lVAukRW7MOjNGpe-19" target="ubxh0lVAukRW7MOjNGpe-21" edge="1">
          <mxGeometry relative="1" as="geometry" />
        </mxCell>
        <mxCell id="ubxh0lVAukRW7MOjNGpe-19" value="" style="ellipse;whiteSpace=wrap;html=1;aspect=fixed;fillColor=#000000;" parent="ubxh0lVAukRW7MOjNGpe-16" vertex="1">
          <mxGeometry x="30" y="30" width="10" height="10" as="geometry" />
        </mxCell>
        <mxCell id="ubxh0lVAukRW7MOjNGpe-20" style="edgeStyle=none;shape=connector;rounded=0;orthogonalLoop=1;jettySize=auto;html=1;entryX=0;entryY=0.5;entryDx=0;entryDy=0;labelBackgroundColor=default;strokeColor=#00CC00;fontFamily=Helvetica;fontSize=11;fontColor=default;endArrow=none;endFill=0;fillColor=#60a917;" parent="ubxh0lVAukRW7MOjNGpe-16" source="ubxh0lVAukRW7MOjNGpe-21" target="ubxh0lVAukRW7MOjNGpe-23" edge="1">
          <mxGeometry relative="1" as="geometry" />
        </mxCell>
        <mxCell id="ubxh0lVAukRW7MOjNGpe-21" value="" style="ellipse;whiteSpace=wrap;html=1;aspect=fixed;fillColor=#000000;" parent="ubxh0lVAukRW7MOjNGpe-16" vertex="1">
          <mxGeometry x="30" y="60" width="10" height="10" as="geometry" />
        </mxCell>
        <mxCell id="ubxh0lVAukRW7MOjNGpe-22" style="edgeStyle=none;shape=connector;rounded=0;orthogonalLoop=1;jettySize=auto;html=1;entryX=1;entryY=1;entryDx=0;entryDy=0;labelBackgroundColor=default;strokeColor=#00CC00;fontFamily=Helvetica;fontSize=11;fontColor=default;endArrow=none;endFill=0;fillColor=#60a917;" parent="ubxh0lVAukRW7MOjNGpe-16" source="ubxh0lVAukRW7MOjNGpe-23" target="ubxh0lVAukRW7MOjNGpe-19" edge="1">
          <mxGeometry relative="1" as="geometry" />
        </mxCell>
        <mxCell id="ubxh0lVAukRW7MOjNGpe-23" value="" style="ellipse;whiteSpace=wrap;html=1;aspect=fixed;fillColor=#000000;" parent="ubxh0lVAukRW7MOjNGpe-16" vertex="1">
          <mxGeometry x="80" y="60" width="10" height="10" as="geometry" />
        </mxCell>
        <mxCell id="ubxh0lVAukRW7MOjNGpe-24" value="" style="rounded=0;whiteSpace=wrap;html=1;strokeColor=#808080;movable=1;resizable=1;rotatable=1;deletable=1;editable=1;locked=0;connectable=1;fillColor=none;" parent="1" vertex="1">
          <mxGeometry x="240" y="440.5" width="120" height="120" as="geometry" />
        </mxCell>
        <mxCell id="ubxh0lVAukRW7MOjNGpe-25" value="&lt;b style=&quot;&quot;&gt;vertexes&lt;/b&gt;" style="text;html=1;align=center;verticalAlign=middle;resizable=0;points=[];autosize=1;strokeColor=none;fillColor=none;fontSize=16;container=0;" parent="1" vertex="1">
          <mxGeometry x="255" y="410.5" width="90" height="30" as="geometry" />
        </mxCell>
        <mxCell id="ubxh0lVAukRW7MOjNGpe-26" value="&lt;span style=&quot;&quot;&gt;vertexes&lt;/span&gt;" style="text;html=1;align=center;verticalAlign=middle;resizable=0;points=[];autosize=1;strokeColor=none;fillColor=none;fontSize=16;container=0;fontStyle=1" parent="1" vertex="1">
          <mxGeometry x="574" y="410.5" width="90" height="30" as="geometry" />
        </mxCell>
        <mxCell id="ubxh0lVAukRW7MOjNGpe-27" style="edgeStyle=none;shape=connector;rounded=0;orthogonalLoop=1;jettySize=auto;html=1;entryX=0.233;entryY=0.533;entryDx=0;entryDy=0;entryPerimeter=0;labelBackgroundColor=default;strokeColor=default;fontFamily=Helvetica;fontSize=11;fontColor=default;endArrow=classic;" parent="1" source="ubxh0lVAukRW7MOjNGpe-29" target="ubxh0lVAukRW7MOjNGpe-19" edge="1">
          <mxGeometry relative="1" as="geometry" />
        </mxCell>
        <mxCell id="ubxh0lVAukRW7MOjNGpe-28" value="&lt;font style=&quot;font-size: 13px;&quot;&gt;transformation&lt;/font&gt;" style="edgeLabel;html=1;align=center;verticalAlign=middle;resizable=0;points=[];labelBackgroundColor=none;rotation=347;" parent="ubxh0lVAukRW7MOjNGpe-27" vertex="1" connectable="0">
          <mxGeometry x="0.0758" y="1" relative="1" as="geometry">
            <mxPoint x="14" y="65" as="offset" />
          </mxGeometry>
        </mxCell>
        <mxCell id="ubxh0lVAukRW7MOjNGpe-29" value="" style="pointerEvents=1;shadow=0;dashed=0;html=1;strokeColor=none;fillColor=#000000;labelPosition=center;verticalLabelPosition=bottom;verticalAlign=top;align=center;outlineConnect=0;shape=mxgraph.veeam.cpu;flipV=1;" parent="1" vertex="1">
          <mxGeometry x="450" y="445.5" width="30" height="30" as="geometry" />
        </mxCell>
        <mxCell id="ubxh0lVAukRW7MOjNGpe-30" style="edgeStyle=none;shape=connector;rounded=0;orthogonalLoop=1;jettySize=auto;html=1;entryX=0;entryY=0.5;entryDx=0;entryDy=0;labelBackgroundColor=default;strokeColor=default;fontFamily=Helvetica;fontSize=11;fontColor=default;endArrow=classic;" parent="1" source="ubxh0lVAukRW7MOjNGpe-31" target="ubxh0lVAukRW7MOjNGpe-23" edge="1">
          <mxGeometry relative="1" as="geometry" />
        </mxCell>
        <mxCell id="ubxh0lVAukRW7MOjNGpe-31" value="" style="pointerEvents=1;shadow=0;dashed=0;html=1;strokeColor=none;fillColor=#000000;labelPosition=center;verticalLabelPosition=bottom;verticalAlign=top;align=center;outlineConnect=0;shape=mxgraph.veeam.cpu;flipV=1;" parent="1" vertex="1">
          <mxGeometry x="450" y="530.5" width="30" height="30" as="geometry" />
        </mxCell>
        <mxCell id="ubxh0lVAukRW7MOjNGpe-32" style="edgeStyle=none;shape=connector;rounded=0;orthogonalLoop=1;jettySize=auto;html=1;entryX=0;entryY=0.5;entryDx=0;entryDy=0;labelBackgroundColor=default;strokeColor=default;fontFamily=Helvetica;fontSize=11;fontColor=default;endArrow=classic;" parent="1" source="ubxh0lVAukRW7MOjNGpe-33" target="ubxh0lVAukRW7MOjNGpe-21" edge="1">
          <mxGeometry relative="1" as="geometry" />
        </mxCell>
        <mxCell id="ubxh0lVAukRW7MOjNGpe-33" value="" style="pointerEvents=1;shadow=0;dashed=0;html=1;strokeColor=none;fillColor=#000000;labelPosition=center;verticalLabelPosition=bottom;verticalAlign=top;align=center;outlineConnect=0;shape=mxgraph.veeam.cpu;flipV=1;" parent="1" vertex="1">
          <mxGeometry x="450" y="490.5" width="30" height="30" as="geometry" />
        </mxCell>
        <mxCell id="ubxh0lVAukRW7MOjNGpe-34" style="rounded=0;orthogonalLoop=1;jettySize=auto;html=1;" parent="1" source="ubxh0lVAukRW7MOjNGpe-36" target="ubxh0lVAukRW7MOjNGpe-29" edge="1">
          <mxGeometry relative="1" as="geometry" />
        </mxCell>
        <mxCell id="DL3VbjLe8YV_Hf3F7eOz-2" value="&lt;b style=&quot;border-color: var(--border-color); font-size: 12px;&quot;&gt;vertex_id=0&lt;/b&gt;" style="edgeLabel;html=1;align=center;verticalAlign=middle;resizable=0;points=[];labelBackgroundColor=none;" vertex="1" connectable="0" parent="ubxh0lVAukRW7MOjNGpe-34">
          <mxGeometry x="0.1185" relative="1" as="geometry">
            <mxPoint x="-10" y="-11" as="offset" />
          </mxGeometry>
        </mxCell>
        <mxCell id="ubxh0lVAukRW7MOjNGpe-35" style="edgeStyle=none;shape=connector;rounded=0;orthogonalLoop=1;jettySize=auto;html=1;entryX=0.5;entryY=0;entryDx=0;entryDy=0;labelBackgroundColor=default;strokeColor=#00CC00;fontFamily=Helvetica;fontSize=11;fontColor=default;endArrow=none;endFill=0;fillColor=#60a917;" parent="1" source="ubxh0lVAukRW7MOjNGpe-36" target="ubxh0lVAukRW7MOjNGpe-39" edge="1">
          <mxGeometry relative="1" as="geometry" />
        </mxCell>
        <mxCell id="ubxh0lVAukRW7MOjNGpe-36" value="" style="ellipse;whiteSpace=wrap;html=1;aspect=fixed;fillColor=#000000;rotation=75;" parent="1" vertex="1">
          <mxGeometry x="303" y="457.5" width="10" height="10" as="geometry" />
        </mxCell>
        <mxCell id="ubxh0lVAukRW7MOjNGpe-37" style="edgeStyle=none;shape=connector;rounded=0;orthogonalLoop=1;jettySize=auto;html=1;labelBackgroundColor=default;strokeColor=default;fontFamily=Helvetica;fontSize=11;fontColor=default;endArrow=classic;" parent="1" source="ubxh0lVAukRW7MOjNGpe-39" target="ubxh0lVAukRW7MOjNGpe-33" edge="1">
          <mxGeometry relative="1" as="geometry" />
        </mxCell>
        <mxCell id="DL3VbjLe8YV_Hf3F7eOz-3" value="&lt;b style=&quot;border-color: var(--border-color); font-size: 12px;&quot;&gt;vertex_id=1&lt;/b&gt;" style="edgeLabel;html=1;align=center;verticalAlign=middle;resizable=0;points=[];labelBackgroundColor=none;rotation=11;" vertex="1" connectable="0" parent="ubxh0lVAukRW7MOjNGpe-37">
          <mxGeometry x="0.3168" relative="1" as="geometry">
            <mxPoint x="-13" y="-12" as="offset" />
          </mxGeometry>
        </mxCell>
        <mxCell id="ubxh0lVAukRW7MOjNGpe-38" style="rounded=0;orthogonalLoop=1;jettySize=auto;html=1;endArrow=none;endFill=0;strokeColor=#00CC00;fillColor=#60a917;" parent="1" source="ubxh0lVAukRW7MOjNGpe-39" target="ubxh0lVAukRW7MOjNGpe-42" edge="1">
          <mxGeometry relative="1" as="geometry" />
        </mxCell>
        <mxCell id="ubxh0lVAukRW7MOjNGpe-39" value="" style="ellipse;whiteSpace=wrap;html=1;aspect=fixed;fillColor=#000000;rotation=75;" parent="1" vertex="1">
          <mxGeometry x="274" y="465.5" width="10" height="10" as="geometry" />
        </mxCell>
        <mxCell id="ubxh0lVAukRW7MOjNGpe-40" style="edgeStyle=none;shape=connector;rounded=0;orthogonalLoop=1;jettySize=auto;html=1;labelBackgroundColor=default;strokeColor=default;fontFamily=Helvetica;fontSize=11;fontColor=default;endArrow=classic;" parent="1" source="ubxh0lVAukRW7MOjNGpe-42" target="ubxh0lVAukRW7MOjNGpe-31" edge="1">
          <mxGeometry relative="1" as="geometry" />
        </mxCell>
        <mxCell id="DL3VbjLe8YV_Hf3F7eOz-4" value="&lt;b style=&quot;border-color: var(--border-color); font-size: 12px;&quot;&gt;vertex_id=2&lt;/b&gt;" style="edgeLabel;html=1;align=center;verticalAlign=middle;resizable=0;points=[];rotation=8;labelBackgroundColor=none;" vertex="1" connectable="0" parent="ubxh0lVAukRW7MOjNGpe-40">
          <mxGeometry x="0.2843" relative="1" as="geometry">
            <mxPoint x="-15" y="-11" as="offset" />
          </mxGeometry>
        </mxCell>
        <mxCell id="ubxh0lVAukRW7MOjNGpe-41" style="edgeStyle=none;shape=connector;rounded=0;orthogonalLoop=1;jettySize=auto;html=1;entryX=1;entryY=1;entryDx=0;entryDy=0;labelBackgroundColor=default;strokeColor=#00CC00;fontFamily=Helvetica;fontSize=11;fontColor=default;endArrow=none;endFill=0;fillColor=#60a917;" parent="1" source="ubxh0lVAukRW7MOjNGpe-42" target="ubxh0lVAukRW7MOjNGpe-36" edge="1">
          <mxGeometry relative="1" as="geometry" />
        </mxCell>
        <mxCell id="ubxh0lVAukRW7MOjNGpe-42" value="" style="ellipse;whiteSpace=wrap;html=1;aspect=fixed;fillColor=#000000;rotation=75;" parent="1" vertex="1">
          <mxGeometry x="287" y="513.5" width="10" height="10" as="geometry" />
        </mxCell>
        <mxCell id="ubxh0lVAukRW7MOjNGpe-43" value="read" style="text;html=1;align=center;verticalAlign=middle;resizable=0;points=[];autosize=1;strokeColor=none;fillColor=none;fontSize=16;container=0;" parent="1" vertex="1">
          <mxGeometry x="510" y="380.5" width="60" height="30" as="geometry" />
        </mxCell>
        <mxCell id="ubxh0lVAukRW7MOjNGpe-44" value="" style="pointerEvents=1;shadow=0;dashed=0;html=1;strokeColor=none;fillColor=#000000;labelPosition=center;verticalLabelPosition=bottom;verticalAlign=top;align=center;outlineConnect=0;shape=mxgraph.veeam.cpu;flipV=1;" parent="1" vertex="1">
          <mxGeometry x="450" y="570.5" width="30" height="30" as="geometry" />
        </mxCell>
        <mxCell id="ubxh0lVAukRW7MOjNGpe-45" style="rounded=0;orthogonalLoop=1;jettySize=auto;html=1;endArrow=none;endFill=0;dashed=1;" parent="1" source="ubxh0lVAukRW7MOjNGpe-46" target="ubxh0lVAukRW7MOjNGpe-44" edge="1">
          <mxGeometry relative="1" as="geometry" />
        </mxCell>
        <mxCell id="ubxh0lVAukRW7MOjNGpe-46" value="GPU Core" style="text;html=1;align=center;verticalAlign=middle;resizable=0;points=[];autosize=1;strokeColor=none;fillColor=none;fontSize=16;container=0;" parent="1" vertex="1">
          <mxGeometry x="294" y="610.5" width="100" height="30" as="geometry" />
        </mxCell>
        <mxCell id="ubxh0lVAukRW7MOjNGpe-47" style="rounded=1;orthogonalLoop=1;jettySize=auto;html=1;strokeWidth=2;edgeStyle=orthogonalEdgeStyle;entryX=0.5;entryY=1;entryDx=0;entryDy=0;shadow=0;dashed=1;" parent="1" source="ubxh0lVAukRW7MOjNGpe-10" target="ubxh0lVAukRW7MOjNGpe-111" edge="1">
          <mxGeometry relative="1" as="geometry">
            <mxPoint x="710" y="170.5" as="targetPoint" />
            <mxPoint x="540" y="310.5" as="sourcePoint" />
          </mxGeometry>
        </mxCell>
        <mxCell id="ubxh0lVAukRW7MOjNGpe-48" style="rounded=1;orthogonalLoop=1;jettySize=auto;html=1;strokeWidth=2;edgeStyle=orthogonalEdgeStyle;shadow=0;dashed=1;" parent="1" source="ubxh0lVAukRW7MOjNGpe-9" target="ubxh0lVAukRW7MOjNGpe-115" edge="1">
          <mxGeometry relative="1" as="geometry">
            <mxPoint x="970" y="190.5" as="targetPoint" />
            <mxPoint x="1040" y="310.5" as="sourcePoint" />
          </mxGeometry>
        </mxCell>
        <mxCell id="ubxh0lVAukRW7MOjNGpe-49" style="rounded=0;orthogonalLoop=1;jettySize=auto;html=1;entryX=0.5;entryY=0;entryDx=0;entryDy=0;" parent="1" source="ubxh0lVAukRW7MOjNGpe-50" target="ubxh0lVAukRW7MOjNGpe-115" edge="1">
          <mxGeometry relative="1" as="geometry" />
        </mxCell>
        <mxCell id="ubxh0lVAukRW7MOjNGpe-50" value="" style="sketch=0;outlineConnect=0;fontColor=#232F3E;gradientColor=none;fillColor=#000000;strokeColor=none;dashed=0;verticalLabelPosition=bottom;verticalAlign=top;align=center;html=1;fontSize=12;fontStyle=0;aspect=fixed;pointerEvents=1;shape=mxgraph.aws4.container_registry_image;" parent="1" vertex="1">
          <mxGeometry x="915" y="2" width="48" height="48" as="geometry" />
        </mxCell>
        <mxCell id="ubxh0lVAukRW7MOjNGpe-51" value="" style="sketch=0;outlineConnect=0;fontColor=#232F3E;gradientColor=#00FFFF;fillColor=#FF0000;strokeColor=none;dashed=0;verticalLabelPosition=bottom;verticalAlign=top;align=center;html=1;fontSize=12;fontStyle=0;aspect=fixed;pointerEvents=1;shape=mxgraph.aws4.container_registry_image;fillStyle=auto;" parent="1" vertex="1">
          <mxGeometry x="1226" y="117" width="48" height="48" as="geometry" />
        </mxCell>
        <mxCell id="ubxh0lVAukRW7MOjNGpe-52" value="Parallel&lt;br&gt;Processing" style="rounded=1;whiteSpace=wrap;html=1;fontStyle=0;verticalAlign=bottom;strokeColor=#d79b00;fillColor=#ffe6cc;fontSize=16;opacity=50;" parent="1" vertex="1">
          <mxGeometry x="1060" y="430.5" width="85" height="230" as="geometry" />
        </mxCell>
        <mxCell id="ubxh0lVAukRW7MOjNGpe-53" style="edgeStyle=orthogonalEdgeStyle;shape=connector;curved=1;rounded=0;orthogonalLoop=1;jettySize=auto;html=1;dashed=1;labelBackgroundColor=default;strokeColor=default;fontFamily=Helvetica;fontSize=11;fontColor=default;endArrow=classic;" parent="1" source="ubxh0lVAukRW7MOjNGpe-57" target="ubxh0lVAukRW7MOjNGpe-59" edge="1">
          <mxGeometry relative="1" as="geometry">
            <Array as="points">
              <mxPoint x="1140" y="355.5" />
              <mxPoint x="1140" y="450.5" />
            </Array>
          </mxGeometry>
        </mxCell>
        <mxCell id="ubxh0lVAukRW7MOjNGpe-54" style="edgeStyle=orthogonalEdgeStyle;shape=connector;curved=1;rounded=0;orthogonalLoop=1;jettySize=auto;html=1;dashed=1;labelBackgroundColor=default;strokeColor=default;fontFamily=Helvetica;fontSize=11;fontColor=default;endArrow=classic;" parent="1" source="ubxh0lVAukRW7MOjNGpe-57" target="ubxh0lVAukRW7MOjNGpe-63" edge="1">
          <mxGeometry relative="1" as="geometry">
            <Array as="points">
              <mxPoint x="1150" y="355.5" />
              <mxPoint x="1150" y="490.5" />
            </Array>
          </mxGeometry>
        </mxCell>
        <mxCell id="ubxh0lVAukRW7MOjNGpe-55" style="edgeStyle=orthogonalEdgeStyle;shape=connector;curved=1;rounded=0;orthogonalLoop=1;jettySize=auto;html=1;dashed=1;labelBackgroundColor=default;strokeColor=default;fontFamily=Helvetica;fontSize=11;fontColor=default;endArrow=classic;" parent="1" source="ubxh0lVAukRW7MOjNGpe-57" target="ubxh0lVAukRW7MOjNGpe-61" edge="1">
          <mxGeometry relative="1" as="geometry">
            <mxPoint x="1160" y="580.5" as="targetPoint" />
            <Array as="points">
              <mxPoint x="1161" y="355.5" />
              <mxPoint x="1161" y="530.5" />
            </Array>
          </mxGeometry>
        </mxCell>
        <mxCell id="ubxh0lVAukRW7MOjNGpe-56" style="edgeStyle=orthogonalEdgeStyle;rounded=0;orthogonalLoop=1;jettySize=auto;html=1;dashed=1;curved=1;" parent="1" source="ubxh0lVAukRW7MOjNGpe-57" target="ubxh0lVAukRW7MOjNGpe-66" edge="1">
          <mxGeometry relative="1" as="geometry">
            <Array as="points">
              <mxPoint x="1170" y="355.5" />
              <mxPoint x="1170" y="580.5" />
            </Array>
          </mxGeometry>
        </mxCell>
        <mxCell id="ubxh0lVAukRW7MOjNGpe-57" value="" style="verticalLabelPosition=bottom;html=1;verticalAlign=top;align=center;strokeColor=none;fillColor=#000000;shape=mxgraph.azure.code_file;pointerEvents=1;container=0;" parent="1" vertex="1">
          <mxGeometry x="1081.25" y="330.5" width="47.5" height="50" as="geometry" />
        </mxCell>
        <mxCell id="ubxh0lVAukRW7MOjNGpe-58" style="shape=connector;rounded=0;orthogonalLoop=1;jettySize=auto;html=1;entryX=0;entryY=0.5;entryDx=0;entryDy=0;labelBackgroundColor=default;strokeColor=default;fontFamily=Helvetica;fontSize=11;fontColor=default;endArrow=classic;" parent="1" source="ubxh0lVAukRW7MOjNGpe-59" target="ubxh0lVAukRW7MOjNGpe-4" edge="1">
          <mxGeometry relative="1" as="geometry">
            <mxPoint x="1232.33" y="475.8299999999999" as="targetPoint" />
          </mxGeometry>
        </mxCell>
        <mxCell id="ubxh0lVAukRW7MOjNGpe-59" value="" style="pointerEvents=1;shadow=0;dashed=0;html=1;strokeColor=none;fillColor=#000000;labelPosition=center;verticalLabelPosition=bottom;verticalAlign=top;align=center;outlineConnect=0;shape=mxgraph.veeam.cpu;flipV=1;" parent="1" vertex="1">
          <mxGeometry x="1090" y="444.5" width="30" height="30" as="geometry" />
        </mxCell>
        <mxCell id="ubxh0lVAukRW7MOjNGpe-60" style="rounded=0;orthogonalLoop=1;jettySize=auto;html=1;entryX=0;entryY=0.5;entryDx=0;entryDy=0;" parent="1" source="ubxh0lVAukRW7MOjNGpe-61" target="ubxh0lVAukRW7MOjNGpe-7" edge="1">
          <mxGeometry relative="1" as="geometry" />
        </mxCell>
        <mxCell id="ubxh0lVAukRW7MOjNGpe-61" value="" style="pointerEvents=1;shadow=0;dashed=0;html=1;strokeColor=none;fillColor=#000000;labelPosition=center;verticalLabelPosition=bottom;verticalAlign=top;align=center;outlineConnect=0;shape=mxgraph.veeam.cpu;flipV=1;" parent="1" vertex="1">
          <mxGeometry x="1090" y="529.5" width="30" height="30" as="geometry" />
        </mxCell>
        <mxCell id="ubxh0lVAukRW7MOjNGpe-62" style="edgeStyle=none;shape=connector;rounded=0;orthogonalLoop=1;jettySize=auto;html=1;entryX=0;entryY=0.5;entryDx=0;entryDy=0;labelBackgroundColor=default;strokeColor=default;fontFamily=Helvetica;fontSize=11;fontColor=default;endArrow=classic;" parent="1" source="ubxh0lVAukRW7MOjNGpe-63" target="ubxh0lVAukRW7MOjNGpe-6" edge="1">
          <mxGeometry relative="1" as="geometry">
            <mxPoint x="1230" y="505.5" as="targetPoint" />
          </mxGeometry>
        </mxCell>
        <mxCell id="ubxh0lVAukRW7MOjNGpe-63" value="" style="pointerEvents=1;shadow=0;dashed=0;html=1;strokeColor=none;fillColor=#000000;labelPosition=center;verticalLabelPosition=bottom;verticalAlign=top;align=center;outlineConnect=0;shape=mxgraph.veeam.cpu;flipV=1;" parent="1" vertex="1">
          <mxGeometry x="1090" y="489.5" width="30" height="30" as="geometry" />
        </mxCell>
        <mxCell id="ubxh0lVAukRW7MOjNGpe-64" value="read" style="text;html=1;align=center;verticalAlign=middle;resizable=0;points=[];autosize=1;strokeColor=none;fillColor=none;fontSize=16;container=0;" parent="1" vertex="1">
          <mxGeometry x="1160" y="380.5" width="60" height="30" as="geometry" />
        </mxCell>
        <mxCell id="ubxh0lVAukRW7MOjNGpe-65" style="rounded=0;orthogonalLoop=1;jettySize=auto;html=1;entryX=0;entryY=0.5;entryDx=0;entryDy=0;" parent="1" source="ubxh0lVAukRW7MOjNGpe-66" target="ubxh0lVAukRW7MOjNGpe-8" edge="1">
          <mxGeometry relative="1" as="geometry" />
        </mxCell>
        <mxCell id="ubxh0lVAukRW7MOjNGpe-66" value="" style="pointerEvents=1;shadow=0;dashed=0;html=1;strokeColor=none;fillColor=#000000;labelPosition=center;verticalLabelPosition=bottom;verticalAlign=top;align=center;outlineConnect=0;shape=mxgraph.veeam.cpu;flipV=1;" parent="1" vertex="1">
          <mxGeometry x="1090" y="569.5" width="30" height="30" as="geometry" />
        </mxCell>
        <mxCell id="ubxh0lVAukRW7MOjNGpe-67" style="rounded=0;orthogonalLoop=1;jettySize=auto;html=1;endArrow=none;endFill=0;dashed=1;" parent="1" source="ubxh0lVAukRW7MOjNGpe-68" target="ubxh0lVAukRW7MOjNGpe-66" edge="1">
          <mxGeometry relative="1" as="geometry" />
        </mxCell>
        <mxCell id="ubxh0lVAukRW7MOjNGpe-68" value="GPU Core" style="text;html=1;align=center;verticalAlign=middle;resizable=0;points=[];autosize=1;strokeColor=none;fillColor=none;fontSize=16;container=0;" parent="1" vertex="1">
          <mxGeometry x="943" y="620.5" width="100" height="30" as="geometry" />
        </mxCell>
        <mxCell id="ubxh0lVAukRW7MOjNGpe-69" value="" style="rounded=0;whiteSpace=wrap;html=1;flipV=1;flipH=1;" parent="1" vertex="1">
          <mxGeometry x="1241" y="600.5" width="40" height="40" as="geometry" />
        </mxCell>
        <mxCell id="ubxh0lVAukRW7MOjNGpe-70" value="" style="rounded=0;whiteSpace=wrap;html=1;flipV=1;flipH=1;" parent="1" vertex="1">
          <mxGeometry x="1281" y="440.5" width="40" height="40" as="geometry" />
        </mxCell>
        <mxCell id="ubxh0lVAukRW7MOjNGpe-71" value="" style="rounded=0;whiteSpace=wrap;html=1;flipV=1;flipH=1;" parent="1" vertex="1">
          <mxGeometry x="1281" y="480.5" width="40" height="40" as="geometry" />
        </mxCell>
        <mxCell id="ubxh0lVAukRW7MOjNGpe-72" value="" style="rounded=0;whiteSpace=wrap;html=1;flipV=1;flipH=1;" parent="1" vertex="1">
          <mxGeometry x="1281" y="520.5" width="40" height="40" as="geometry" />
        </mxCell>
        <mxCell id="ubxh0lVAukRW7MOjNGpe-73" value="" style="rounded=0;whiteSpace=wrap;html=1;flipV=1;flipH=1;" parent="1" vertex="1">
          <mxGeometry x="1281" y="560.5" width="40" height="40" as="geometry" />
        </mxCell>
        <mxCell id="ubxh0lVAukRW7MOjNGpe-74" value="" style="rounded=0;whiteSpace=wrap;html=1;flipV=1;flipH=1;" parent="1" vertex="1">
          <mxGeometry x="1321" y="440.5" width="40" height="40" as="geometry" />
        </mxCell>
        <mxCell id="ubxh0lVAukRW7MOjNGpe-75" value="" style="rounded=0;whiteSpace=wrap;html=1;flipV=1;flipH=1;" parent="1" vertex="1">
          <mxGeometry x="1321" y="480.5" width="40" height="40" as="geometry" />
        </mxCell>
        <mxCell id="ubxh0lVAukRW7MOjNGpe-76" value="" style="rounded=0;whiteSpace=wrap;html=1;flipV=1;flipH=1;" parent="1" vertex="1">
          <mxGeometry x="1321" y="520.5" width="40" height="40" as="geometry" />
        </mxCell>
        <mxCell id="ubxh0lVAukRW7MOjNGpe-77" value="" style="rounded=0;whiteSpace=wrap;html=1;flipV=1;flipH=1;" parent="1" vertex="1">
          <mxGeometry x="1361" y="440.5" width="40" height="40" as="geometry" />
        </mxCell>
        <mxCell id="ubxh0lVAukRW7MOjNGpe-78" value="" style="rounded=0;whiteSpace=wrap;html=1;flipV=1;flipH=1;" parent="1" vertex="1">
          <mxGeometry x="1361" y="480.5" width="40" height="40" as="geometry" />
        </mxCell>
        <mxCell id="ubxh0lVAukRW7MOjNGpe-79" value="" style="rounded=0;whiteSpace=wrap;html=1;flipV=1;flipH=1;" parent="1" vertex="1">
          <mxGeometry x="1401" y="440.5" width="40" height="40" as="geometry" />
        </mxCell>
        <mxCell id="ubxh0lVAukRW7MOjNGpe-80" value="pixel" style="rounded=1;whiteSpace=wrap;html=1;fontStyle=1;strokeColor=none;fontSize=16;" parent="1" vertex="1">
          <mxGeometry x="1290" y="470.5" width="95" height="30" as="geometry" />
        </mxCell>
        <mxCell id="ubxh0lVAukRW7MOjNGpe-81" value="" style="rounded=0;whiteSpace=wrap;html=1;fillColor=#f5f5f5;fontColor=#333333;strokeColor=#000000;opacity=40;" parent="1" vertex="1">
          <mxGeometry x="840" y="440.5" width="40" height="40" as="geometry" />
        </mxCell>
        <mxCell id="ubxh0lVAukRW7MOjNGpe-82" value="" style="rounded=0;whiteSpace=wrap;html=1;fillColor=#f8cecc;strokeColor=#000000;opacity=40;" parent="1" vertex="1">
          <mxGeometry x="840" y="480.5" width="40" height="40" as="geometry" />
        </mxCell>
        <mxCell id="ubxh0lVAukRW7MOjNGpe-83" value="" style="rounded=0;whiteSpace=wrap;html=1;fillColor=#dae8fc;strokeColor=#000000;opacity=40;" parent="1" vertex="1">
          <mxGeometry x="840" y="520.5" width="40" height="40" as="geometry" />
        </mxCell>
        <mxCell id="ubxh0lVAukRW7MOjNGpe-84" value="" style="rounded=0;whiteSpace=wrap;html=1;fillColor=#fff2cc;strokeColor=#000000;opacity=40;" parent="1" vertex="1">
          <mxGeometry x="840" y="560.5" width="40" height="40" as="geometry" />
        </mxCell>
        <mxCell id="ubxh0lVAukRW7MOjNGpe-85" value="" style="rounded=0;whiteSpace=wrap;html=1;flipV=1;flipH=1;fillColor=#e1d5e7;strokeColor=#000000;opacity=40;" parent="1" vertex="1">
          <mxGeometry x="840" y="600.5" width="40" height="40" as="geometry" />
        </mxCell>
        <mxCell id="ubxh0lVAukRW7MOjNGpe-86" value="" style="rounded=0;whiteSpace=wrap;html=1;flipV=1;flipH=1;fillColor=#dae8fc;strokeColor=#000000;opacity=40;" parent="1" vertex="1">
          <mxGeometry x="880" y="440.5" width="40" height="40" as="geometry" />
        </mxCell>
        <mxCell id="ubxh0lVAukRW7MOjNGpe-87" value="" style="rounded=0;whiteSpace=wrap;html=1;flipV=1;flipH=1;fillColor=#e1d5e7;strokeColor=#000000;opacity=40;" parent="1" vertex="1">
          <mxGeometry x="880" y="480.5" width="40" height="40" as="geometry" />
        </mxCell>
        <mxCell id="ubxh0lVAukRW7MOjNGpe-88" value="" style="rounded=0;whiteSpace=wrap;html=1;flipV=1;flipH=1;fillColor=#d5e8d4;strokeColor=#000000;opacity=40;" parent="1" vertex="1">
          <mxGeometry x="880" y="520.5" width="40" height="40" as="geometry" />
        </mxCell>
        <mxCell id="ubxh0lVAukRW7MOjNGpe-89" value="" style="rounded=0;whiteSpace=wrap;html=1;flipV=1;flipH=1;fillColor=#f8cecc;strokeColor=#000000;opacity=40;" parent="1" vertex="1">
          <mxGeometry x="880" y="560.5" width="40" height="40" as="geometry" />
        </mxCell>
        <mxCell id="ubxh0lVAukRW7MOjNGpe-90" value="" style="rounded=0;whiteSpace=wrap;html=1;flipV=1;flipH=1;fillColor=#d5e8d4;strokeColor=#000000;opacity=40;" parent="1" vertex="1">
          <mxGeometry x="920" y="440.5" width="40" height="40" as="geometry" />
        </mxCell>
        <mxCell id="ubxh0lVAukRW7MOjNGpe-91" value="" style="rounded=0;whiteSpace=wrap;html=1;flipV=1;flipH=1;fillColor=#dae8fc;strokeColor=#000000;opacity=40;" parent="1" vertex="1">
          <mxGeometry x="920" y="480.5" width="40" height="40" as="geometry" />
        </mxCell>
        <mxCell id="ubxh0lVAukRW7MOjNGpe-92" value="" style="rounded=0;whiteSpace=wrap;html=1;flipV=1;flipH=1;fillColor=#ffe6cc;strokeColor=#000000;opacity=40;" parent="1" vertex="1">
          <mxGeometry x="920" y="520.5" width="40" height="40" as="geometry" />
        </mxCell>
        <mxCell id="ubxh0lVAukRW7MOjNGpe-93" value="" style="rounded=0;whiteSpace=wrap;html=1;flipV=1;flipH=1;fillColor=#ffe6cc;strokeColor=#000000;opacity=40;" parent="1" vertex="1">
          <mxGeometry x="960" y="440.5" width="40" height="40" as="geometry" />
        </mxCell>
        <mxCell id="ubxh0lVAukRW7MOjNGpe-94" value="" style="rounded=0;whiteSpace=wrap;html=1;flipV=1;flipH=1;fillColor=#f5f5f5;fontColor=#333333;strokeColor=#000000;opacity=40;" parent="1" vertex="1">
          <mxGeometry x="960" y="480.5" width="40" height="40" as="geometry" />
        </mxCell>
        <mxCell id="ubxh0lVAukRW7MOjNGpe-95" value="" style="rounded=0;whiteSpace=wrap;html=1;flipV=1;flipH=1;fillColor=#fff2cc;strokeColor=#000000;opacity=40;" parent="1" vertex="1">
          <mxGeometry x="1000" y="440.5" width="40" height="40" as="geometry" />
        </mxCell>
        <mxCell id="ubxh0lVAukRW7MOjNGpe-96" value="pixel" style="rounded=1;whiteSpace=wrap;html=1;fontStyle=1;strokeColor=none;fontSize=16;fillColor=default;" parent="1" vertex="1">
          <mxGeometry x="915" y="470.5" width="50" height="30" as="geometry" />
        </mxCell>
        <mxCell id="ubxh0lVAukRW7MOjNGpe-97" value="" style="shape=singleArrow;whiteSpace=wrap;html=1;fontFamily=Helvetica;fontSize=11;arrowWidth=0.5388888888888858;arrowSize=0.40310077519379667;fillColor=#6d8764;strokeColor=none;fontColor=#ffffff;gradientColor=#FFFFFF;gradientDirection=west;" parent="1" vertex="1">
          <mxGeometry x="1017" y="505.5" width="43" height="60" as="geometry" />
        </mxCell>
        <mxCell id="ubxh0lVAukRW7MOjNGpe-98" value="Texture" style="text;html=1;align=center;verticalAlign=middle;resizable=0;points=[];autosize=1;strokeColor=none;fillColor=none;fontStyle=1;fontSize=15;" parent="1" vertex="1">
          <mxGeometry x="814" y="2" width="80" height="30" as="geometry" />
        </mxCell>
        <mxCell id="ubxh0lVAukRW7MOjNGpe-99" style="rounded=0;orthogonalLoop=1;jettySize=auto;html=1;entryX=0.5;entryY=0;entryDx=0;entryDy=0;" parent="1" source="ubxh0lVAukRW7MOjNGpe-102" target="ubxh0lVAukRW7MOjNGpe-111" edge="1">
          <mxGeometry relative="1" as="geometry">
            <mxPoint x="480" y="141.5" as="targetPoint" />
          </mxGeometry>
        </mxCell>
        <mxCell id="ubxh0lVAukRW7MOjNGpe-100" value="Vertexes" style="text;html=1;align=center;verticalAlign=middle;resizable=0;points=[];autosize=1;strokeColor=none;fillColor=none;fontStyle=1;fontSize=15;" parent="1" vertex="1">
          <mxGeometry x="557.5" y="1.5" width="90" height="30" as="geometry" />
        </mxCell>
        <mxCell id="ubxh0lVAukRW7MOjNGpe-101" value="" style="group" parent="1" vertex="1" connectable="0">
          <mxGeometry x="642.5" width="40" height="40" as="geometry" />
        </mxCell>
        <mxCell id="ubxh0lVAukRW7MOjNGpe-102" value="" style="whiteSpace=wrap;html=1;aspect=fixed;fillColor=none;" parent="ubxh0lVAukRW7MOjNGpe-101" vertex="1">
          <mxGeometry width="40" height="40" as="geometry" />
        </mxCell>
        <mxCell id="ubxh0lVAukRW7MOjNGpe-103" value="" style="ellipse;whiteSpace=wrap;html=1;aspect=fixed;strokeColor=none;fillColor=#000000;" parent="ubxh0lVAukRW7MOjNGpe-101" vertex="1">
          <mxGeometry x="6.5" y="14" width="5" height="5" as="geometry" />
        </mxCell>
        <mxCell id="ubxh0lVAukRW7MOjNGpe-104" value="" style="ellipse;whiteSpace=wrap;html=1;aspect=fixed;strokeColor=none;fillColor=#000000;" parent="ubxh0lVAukRW7MOjNGpe-101" vertex="1">
          <mxGeometry x="19.5" y="29" width="5" height="5" as="geometry" />
        </mxCell>
        <mxCell id="ubxh0lVAukRW7MOjNGpe-105" value="" style="ellipse;whiteSpace=wrap;html=1;aspect=fixed;strokeColor=none;fillColor=#000000;" parent="ubxh0lVAukRW7MOjNGpe-101" vertex="1">
          <mxGeometry x="25.5" y="7" width="5" height="5" as="geometry" />
        </mxCell>
        <mxCell id="ubxh0lVAukRW7MOjNGpe-106" value="Output Image" style="text;html=1;align=center;verticalAlign=middle;resizable=0;points=[];autosize=1;strokeColor=none;fillColor=none;fontStyle=1;fontSize=15;" parent="1" vertex="1">
          <mxGeometry x="1190" y="165" width="120" height="30" as="geometry" />
        </mxCell>
        <mxCell id="ubxh0lVAukRW7MOjNGpe-107" value="Sampler" style="text;html=1;align=center;verticalAlign=middle;resizable=0;points=[];autosize=1;strokeColor=none;fillColor=none;fontSize=16;container=0;" parent="1" vertex="1">
          <mxGeometry x="970" y="520.5" width="80" height="30" as="geometry" />
        </mxCell>
        <mxCell id="ubxh0lVAukRW7MOjNGpe-108" style="edgeStyle=orthogonalEdgeStyle;rounded=0;orthogonalLoop=1;jettySize=auto;html=1;" parent="1" source="ubxh0lVAukRW7MOjNGpe-1" target="ubxh0lVAukRW7MOjNGpe-51" edge="1">
          <mxGeometry relative="1" as="geometry" />
        </mxCell>
        <mxCell id="ubxh0lVAukRW7MOjNGpe-109" value="Primitives" style="rounded=1;whiteSpace=wrap;html=1;fontStyle=1;fontSize=13;fillColor=#dae8fc;strokeColor=#6c8ebf;" parent="1" vertex="1">
          <mxGeometry x="480" y="121" width="90" height="40" as="geometry" />
        </mxCell>
        <mxCell id="ubxh0lVAukRW7MOjNGpe-110" style="edgeStyle=orthogonalEdgeStyle;rounded=0;orthogonalLoop=1;jettySize=auto;html=1;entryX=0;entryY=0.5;entryDx=0;entryDy=0;" parent="1" source="ubxh0lVAukRW7MOjNGpe-111" target="ubxh0lVAukRW7MOjNGpe-113" edge="1">
          <mxGeometry relative="1" as="geometry" />
        </mxCell>
        <mxCell id="ubxh0lVAukRW7MOjNGpe-111" value="&lt;span style=&quot;font-size: 13px;&quot;&gt;Vertex&lt;br&gt;Function&lt;br&gt;&lt;/span&gt;" style="rounded=1;whiteSpace=wrap;html=1;fontStyle=1;fontSize=13;fillColor=#E6E6E6;fontColor=#CC0000;strokeColor=default;" parent="1" vertex="1">
          <mxGeometry x="618" y="121" width="90" height="40" as="geometry" />
        </mxCell>
        <mxCell id="ubxh0lVAukRW7MOjNGpe-112" style="edgeStyle=orthogonalEdgeStyle;rounded=0;orthogonalLoop=1;jettySize=auto;html=1;entryX=0;entryY=0.5;entryDx=0;entryDy=0;" parent="1" source="ubxh0lVAukRW7MOjNGpe-109" target="ubxh0lVAukRW7MOjNGpe-111" edge="1">
          <mxGeometry relative="1" as="geometry" />
        </mxCell>
        <mxCell id="ubxh0lVAukRW7MOjNGpe-113" value="&lt;span style=&quot;font-size: 13px;&quot;&gt;Resterization&lt;br&gt;&lt;/span&gt;" style="rounded=1;whiteSpace=wrap;html=1;fontStyle=1;fontSize=13;fillColor=#dae8fc;strokeColor=#6c8ebf;" parent="1" vertex="1">
          <mxGeometry x="755" y="121" width="90" height="40" as="geometry" />
        </mxCell>
        <mxCell id="ubxh0lVAukRW7MOjNGpe-114" style="edgeStyle=orthogonalEdgeStyle;rounded=0;orthogonalLoop=1;jettySize=auto;html=1;" parent="1" source="ubxh0lVAukRW7MOjNGpe-115" target="ubxh0lVAukRW7MOjNGpe-118" edge="1">
          <mxGeometry relative="1" as="geometry">
            <mxPoint x="1010" y="240" as="targetPoint" />
          </mxGeometry>
        </mxCell>
        <mxCell id="ubxh0lVAukRW7MOjNGpe-115" value="&lt;span style=&quot;font-size: 13px;&quot;&gt;Fragment&lt;br&gt;Function&lt;br&gt;&lt;/span&gt;" style="rounded=1;whiteSpace=wrap;html=1;fontStyle=1;fontSize=13;fillColor=#E6E6E6;fontColor=#CC0000;strokeColor=default;" parent="1" vertex="1">
          <mxGeometry x="894" y="121" width="90" height="40" as="geometry" />
        </mxCell>
        <mxCell id="ubxh0lVAukRW7MOjNGpe-116" style="edgeStyle=orthogonalEdgeStyle;rounded=0;orthogonalLoop=1;jettySize=auto;html=1;entryX=0;entryY=0.5;entryDx=0;entryDy=0;" parent="1" source="ubxh0lVAukRW7MOjNGpe-113" target="ubxh0lVAukRW7MOjNGpe-115" edge="1">
          <mxGeometry relative="1" as="geometry" />
        </mxCell>
        <mxCell id="ubxh0lVAukRW7MOjNGpe-117" value="" style="endArrow=none;dashed=1;html=1;dashPattern=1 3;strokeWidth=4;rounded=0;" parent="1" edge="1">
          <mxGeometry width="50" height="50" relative="1" as="geometry">
            <mxPoint x="1144" y="141" as="sourcePoint" />
            <mxPoint x="1024" y="141" as="targetPoint" />
          </mxGeometry>
        </mxCell>
        <mxCell id="ubxh0lVAukRW7MOjNGpe-118" value="" style="rounded=1;whiteSpace=wrap;html=1;fillColor=none;strokeColor=none;" parent="1" vertex="1">
          <mxGeometry x="1015" y="131" width="20" height="20" as="geometry" />
        </mxCell>
        <mxCell id="ubxh0lVAukRW7MOjNGpe-119" value="Sampler" style="ellipse;whiteSpace=wrap;html=1;fillColor=#E6E6E6;strokeColor=default;fontStyle=1;fontSize=13;fontColor=#CC0000;rounded=1;" parent="1" vertex="1">
          <mxGeometry x="910" y="65.5" width="58" height="29.5" as="geometry" />
        </mxCell>
      </root>
    </mxGraphModel>
  </diagram>
</mxfile>
